# xmcd
#
# Track frame offsets:
#	150
#	52118
#	63707
#	76967
#	89168
#	110577
#	133481
#	141626
#	159855
#	188875
#	206230
#	243626
#
# Disc length: 3461 seconds
# Revision: 0
# Processed by: cddbd v1.5.2PL0 Copyright (c) Steve Scherf et al.
# Submitted via: dBpowerAMP V12.0
#
DISCID=c40d830c
DTITLE=Hale Dwoskin - Absolute Freedom CD 01 - Opening to Freedom
DYEAR=2005
DGENRE=Speech
TTITLE0=Introduction to Holistic Releasing
TTITLE1=Welcoming What Is
TTITLE2=Being Closed and Contracted
TTITLE3=Wanting to Be Limited
TTITLE4=Being the Body - Being the Mind
TTITLE5=Being Incomplete - Wanting More - Take a Break
TTITLE6=Welcome Back
TTITLE7=Wanting to Change It - Being Special
TTITLE8=The Need to Do or Undo Something - Free Will - Predetermination
TTITLE9=The Importance of Freedom - Needing a Free One
TTITLE10=Doing a Practice - Making Progress - The Path to Freedom
TTITLE11=Change and Changelessness
EXTD=
EXTT0=
EXTT1=
EXTT2=
EXTT3=
EXTT4=
EXTT5=
EXTT6=
EXTT7=
EXTT8=
EXTT9=
EXTT10=
EXTT11=
PLAYORDER=
